{"title":"Dead.Cert.2010.BRRip.XviD.Ac3.Feel-Free","uid":6904752,"size":801870267,"categoryP":"video","categoryS":"movies","magnet":"?xt=urn:btih:24d8cf68a337364a63aee391fd5ee3541afb636c&amp;dn=Dead.Cert.2010.BRRip.XviD.Ac3.Feel-Free&amp;tr=udp%3A%2F%2Ftracker.openbittorrent.com%3A80&amp;tr=udp%3A%2F%2Fopen.demonii.com%3A1337&amp;tr=udp%3A%2F%2Ftracker.coppersurfer.tk%3A6969&amp;tr=udp%3A%2F%2Fexodus.desync.com%3A6969","seeders":1,"leechers":0,"uploader":".BONE.","files":8,"time":1324544143,"description":"Genre:Horror\nLanguage:English\n &lt;a href=&quot;\nhttp://www.imdb.com/title/tt1499220/&quot; rel=&quot;nofollow&quot; target=&quot;_NEW&quot;&gt;\nhttp://www.imdb.com/title/tt1499220/&lt;/a&gt;\n\nSource:1080p.BluRay.x264-HD4U Thanks!\n\nFormat : AVI\nFormat/Info : Audio Video Interleave\nFile size : 764 MiB\nDuration : 1h 32mn\nOverall bit rate : 1 149 Kbps\n\nVideo\nID : 0\nFormat : MPEG-4 Visual\nFormat profile : Advanced Simple@L5\nFormat settings, BVOP : Yes\nFormat settings, QPel : No\nFormat settings, GMC : No warppoints\nFormat settings, Matrix : Default (H.263)\nCodec ID : XVID\nCodec ID/Hint : XviD\nDuration : 1h 32mn\nBit rate : 694 Kbps\nWidth : 640 pixels\nHeight : 272 pixels\nDisplay aspect ratio : 2.35:1\nFrame rate : 23.976 fps\nColor space : YUV\nChroma subsampling : 4:2:0\nBit depth : 8 bits\nScan type : Progressive\nBits/(Pixel*Frame) : 0.166\nStream size : 461 MiB (60%)\nWriting library : XviD 1.2.1 (UTC 2008-12-04)\n\nAudio\nID : 1\nFormat : AC-3\nFormat/Info : Audio Coding 3\nMode extension : CM (complete main)\nCodec ID : 2000\nDuration : 1h 32mn\nBit rate mode : Constant\nBit rate : 448 Kbps\nChannel(s) : 6 channels\nChannel positions : Front: L C R, Side: L R, LFE\nSampling rate : 48.0 KHz\nBit depth : 16 bits\nStream size : 297 MiB (39%)\nAlignment : Aligned on interleaves\nInterleave, duration : 42 ms (1.00 video frame)\nInterleave, preload duration : 512 ms\n\n\nPlot:\nA gang of tough London gangsters get more than they bargained for when a group of businessmen make an offer to buy their club, the Inferno. They turn out to be nothing less than Vampires wanting their land back and turn viciously on the gangsters when their demands are not met","torrent":{"xt":"urn:btih:24d8cf68a337364a63aee391fd5ee3541afb636c","amp;dn":"Dead.Cert.2010.BRRip.XviD.Ac3.Feel-Free","amp;tr":["udp%3A%2F%2Ftracker.openbittorrent.com%3A80","udp%3A%2F%2Fopen.demonii.com%3A1337","udp%3A%2F%2Ftracker.coppersurfer.tk%3A6969","udp%3A%2F%2Fexodus.desync.com%3A6969"],"infoHash":"24d8cf68a337364a63aee391fd5ee3541afb636c","infoHashBuffer":{"type":"Buffer","data":[36,216,207,104,163,55,54,74,99,174,227,145,253,94,227,84,26,251,99,108]},"announce":[],"urlList":[]}}